<svg width="17" height="17" viewBox="0 0 17 17" fill="none" xmlns="http://www.w3.org/2000/svg">
<path d="M8.50065 1.83337C4.81732 1.83337 1.83399 4.81671 1.83399 8.50004C1.83318 9.89948 2.27305 11.2636 3.09119 12.399C3.90933 13.5344 5.06421 14.3833 6.39199 14.8254C6.72532 14.8834 6.85065 14.6834 6.85065 14.508C6.85065 14.35 6.84199 13.8254 6.84199 13.2667C5.16732 13.5754 4.73399 12.8587 4.60065 12.4834C4.52532 12.2914 4.20065 11.7 3.91732 11.5414C3.68399 11.4167 3.35065 11.108 3.90865 11.1C4.43399 11.0914 4.80865 11.5834 4.93399 11.7834C5.53399 12.7914 6.49199 12.508 6.87532 12.3334C6.93399 11.9 7.10865 11.6087 7.30065 11.442C5.81732 11.2754 4.26732 10.7 4.26732 8.15004C4.26732 7.42471 4.52532 6.82537 4.95065 6.35871C4.88399 6.19204 4.65065 5.50871 5.01732 4.59204C5.01732 4.59204 5.57532 4.41671 6.85065 5.27471C7.39339 5.12431 7.95413 5.04872 8.51732 5.05004C9.08399 5.05004 9.65065 5.12471 10.184 5.27471C11.4593 4.40804 12.0173 4.59204 12.0173 4.59204C12.384 5.50871 12.1507 6.19204 12.084 6.35871C12.5087 6.82537 12.7673 7.41671 12.7673 8.15004C12.7673 10.7087 11.2093 11.2754 9.72599 11.442C9.96732 11.65 10.176 12.05 10.176 12.6754C10.176 13.5667 10.1673 14.2834 10.1673 14.5087C10.1673 14.6834 10.2927 14.8914 10.626 14.8247C11.9492 14.3778 13.099 13.5272 13.9135 12.3927C14.7281 11.2581 15.1663 9.8967 15.1667 8.50004C15.1667 4.81671 12.1833 1.83337 8.49999 1.83337" fill="white"/>
</svg>
