<svg width="14" height="15" viewBox="0 0 14 15" fill="none" xmlns="http://www.w3.org/2000/svg">
<path d="M0.76 4.43571C1.35429 3.25232 2.26598 2.25751 3.39317 1.56248C4.52035 0.867448 5.81862 0.499583 7.14286 0.5C9.06786 0.5 10.685 1.20786 11.9214 2.36071L9.87357 4.40929C9.13286 3.70143 8.19143 3.34071 7.14286 3.34071C5.28214 3.34071 3.70714 4.59786 3.14643 6.28572C3.00357 6.71429 2.92214 7.17143 2.92214 7.64286C2.92214 8.11429 3.00357 8.57143 3.14643 9C3.70786 10.6886 5.28214 11.945 7.14286 11.945C8.10357 11.945 8.92143 11.6914 9.56143 11.2629C9.93246 11.0186 10.2501 10.7016 10.4951 10.3311C10.7402 9.96055 10.9076 9.54418 10.9871 9.10714H7.14286V6.34429H13.87C13.9543 6.81143 14 7.29857 14 7.805C14 9.98072 13.2214 11.8121 11.87 13.055C10.6886 14.1464 9.07143 14.7857 7.14286 14.7857C6.20474 14.7861 5.27574 14.6016 4.40896 14.2428C3.54218 13.8839 2.75461 13.3578 2.09126 12.6945C1.42791 12.0311 0.901783 11.2435 0.542953 10.3768C0.184124 9.50997 -0.000374901 8.58098 5.71939e-07 7.64286C5.71939e-07 6.49 0.275715 5.4 0.76 4.43571Z" fill="white"/>
</svg>
